<svg width="147" height="52" viewBox="0 0 147 52" fill="none" xmlns="http://www.w3.org/2000/svg">
<mask id="mask0_6_4" style="mask-type:alpha" maskUnits="userSpaceOnUse" x="0" y="0" width="147" height="52">
<rect width="147" height="52" fill="#D9D9D9"/>
</mask>
<g mask="url(#mask0_6_4)">
<rect x="0.299423" y="1.5786" width="50.458" height="48.1645" rx="8" fill="#DF2323"/>
<circle cx="25.8034" cy="25.5116" r="18.2801" transform="rotate(15 25.8034 25.5116)" fill="white"/>
<circle cx="25.8034" cy="25.5116" r="18.2801" transform="rotate(15 25.8034 25.5116)" fill="white"/>
<circle cx="25.8034" cy="25.5116" r="11.2039" transform="rotate(15 25.8034 25.5116)" fill="#DF2323"/>
<circle cx="25.8936" cy="25.5178" r="6.09338" transform="rotate(15 25.8936 25.5178)" fill="white"/>
<rect x="36.5894" y="27.1807" width="7.55681" height="2.94841" transform="rotate(15 36.5894 27.1807)" fill="#DF2323"/>
<rect x="8.39374" y="19.6257" width="7.60547" height="2.94841" transform="rotate(15 8.39374 19.6257)" fill="#DF2323"/>
<path d="M59.6266 33.6608C60.1066 33.6608 60.6506 33.7302 61.2586 33.8688L61.2266 35.0688C60.608 34.9302 60.0746 34.8608 59.6266 34.8608C59.1253 34.8608 58.7413 34.9995 58.4746 35.2768C58.2186 35.5542 58.0906 35.9488 58.0906 36.4608V39.0368C58.0906 39.5702 58.224 39.9755 58.4906 40.2528C58.768 40.5195 59.1466 40.6528 59.6266 40.6528C59.9253 40.6528 60.1866 40.6368 60.4106 40.6048C60.6346 40.5728 60.9066 40.5195 61.2266 40.4448L61.2586 41.6448C60.608 41.7835 60.0586 41.8528 59.6106 41.8528C57.6906 41.8528 56.7306 40.8822 56.7306 38.9408V36.5728C56.7306 34.6315 57.696 33.6608 59.6266 33.6608ZM66.009 33.6608C66.9263 33.6608 67.593 33.8688 68.009 34.2848C68.4357 34.6902 68.649 35.3408 68.649 36.2368V41.6608H67.353V40.4128C66.7343 41.3728 66.0357 41.8528 65.257 41.8528C64.6383 41.8528 64.1423 41.6395 63.769 41.2128C63.4063 40.7862 63.225 40.2048 63.225 39.4688V39.0208C63.225 38.3808 63.4437 37.8528 63.881 37.4368C64.3183 37.0102 64.905 36.7968 65.641 36.7968C66.0463 36.7968 66.5957 36.8662 67.289 37.0048V36.1248C67.289 35.6662 67.1823 35.3355 66.969 35.1328C66.7663 34.9302 66.4463 34.8288 66.009 34.8288C65.497 34.8288 64.777 34.9088 63.849 35.0688V33.9008C64.8517 33.7408 65.5717 33.6608 66.009 33.6608ZM65.977 37.8528C65.529 37.8528 65.1877 37.9702 64.953 38.2048C64.7183 38.4395 64.601 38.7702 64.601 39.1968V39.3728C64.601 39.7675 64.6917 40.0768 64.873 40.3008C65.0543 40.5248 65.2837 40.6368 65.561 40.6368C65.849 40.6368 66.1423 40.5142 66.441 40.2688C66.7503 40.0128 67.033 39.6555 67.289 39.1968V37.9648C66.8837 37.8902 66.4463 37.8528 65.977 37.8528ZM72.9125 33.8528H74.9925V34.9728H72.9125V39.5488C72.9125 39.9542 72.9925 40.2475 73.1525 40.4288C73.3232 40.5995 73.5845 40.6848 73.9365 40.6848C74.3845 40.6848 74.8218 40.6315 75.2485 40.5248L75.2805 41.6608C74.8112 41.7888 74.3845 41.8528 74.0005 41.8528C73.1472 41.8528 72.5232 41.6662 72.1285 41.2928C71.7445 40.9088 71.5525 40.2902 71.5525 39.4368V34.9728H70.4325V33.8528H71.5525L71.8085 31.7728H72.9125V33.8528ZM79.9547 33.6608C80.4347 33.6608 80.9787 33.7302 81.5867 33.8688L81.5547 35.0688C80.9361 34.9302 80.4027 34.8608 79.9547 34.8608C79.4534 34.8608 79.0694 34.9995 78.8027 35.2768C78.5467 35.5542 78.4187 35.9488 78.4187 36.4608V39.0368C78.4187 39.5702 78.5521 39.9755 78.8187 40.2528C79.0961 40.5195 79.4747 40.6528 79.9547 40.6528C80.2534 40.6528 80.5147 40.6368 80.7387 40.6048C80.9627 40.5728 81.2347 40.5195 81.5547 40.4448L81.5867 41.6448C80.9361 41.7835 80.3867 41.8528 79.9387 41.8528C78.0187 41.8528 77.0587 40.8822 77.0587 38.9408V36.5728C77.0587 34.6315 78.0241 33.6608 79.9547 33.6608ZM85.3131 34.8928C85.8998 34.0715 86.5825 33.6608 87.3611 33.6608C88.0438 33.6608 88.5665 33.8955 88.9291 34.3648C89.3025 34.8235 89.4891 35.4795 89.4891 36.3328V41.6608H88.1291V36.5248C88.1291 35.4582 87.7825 34.9248 87.0891 34.9248C86.7798 34.9248 86.4651 35.0422 86.1451 35.2768C85.8251 35.5115 85.5478 35.8315 85.3131 36.2368V41.6608H83.9531V30.7328H85.3131V34.8928ZM97.1312 33.8528H99.2112V34.9728H97.1312V39.5488C97.1312 39.9542 97.2112 40.2475 97.3712 40.4288C97.5419 40.5995 97.8032 40.6848 98.1552 40.6848C98.6032 40.6848 99.0406 40.6315 99.4672 40.5248L99.4992 41.6608C99.0299 41.7888 98.6032 41.8528 98.2192 41.8528C97.3659 41.8528 96.7419 41.6662 96.3472 41.2928C95.9632 40.9088 95.7712 40.2902 95.7712 39.4368V34.9728H94.6512V33.8528H95.7712L96.0272 31.7728H97.1312V33.8528ZM102.797 34.8928C103.384 34.0715 104.067 33.6608 104.845 33.6608C105.528 33.6608 106.051 33.8955 106.413 34.3648C106.787 34.8235 106.973 35.4795 106.973 36.3328V41.6608H105.613V36.5248C105.613 35.4582 105.267 34.9248 104.573 34.9248C104.264 34.9248 103.949 35.0422 103.629 35.2768C103.309 35.5115 103.032 35.8315 102.797 36.2368V41.6608H101.437V30.7328H102.797V34.8928ZM112.201 33.6608C113.097 33.6608 113.779 33.9062 114.249 34.3968C114.718 34.8875 114.953 35.5968 114.953 36.5248V38.1728H110.841V39.1168C110.841 39.6608 110.969 40.0555 111.225 40.3008C111.491 40.5355 111.907 40.6528 112.473 40.6528C113.027 40.6528 113.721 40.5675 114.553 40.3968L114.585 41.5808C113.593 41.7622 112.883 41.8528 112.457 41.8528C111.401 41.8528 110.638 41.6235 110.169 41.1648C109.71 40.7062 109.481 39.9968 109.481 39.0368V36.5248C109.481 35.5968 109.705 34.8875 110.153 34.3968C110.611 33.9062 111.294 33.6608 112.201 33.6608ZM112.201 34.7968C111.785 34.7968 111.454 34.9302 111.209 35.1968C110.963 35.4528 110.841 35.8262 110.841 36.3168V37.0848H113.593V36.3648C113.593 35.8528 113.465 35.4635 113.209 35.1968C112.963 34.9302 112.627 34.7968 112.201 34.7968ZM124.801 33.6608C125.484 33.6608 126.006 33.8955 126.369 34.3648C126.732 34.8235 126.913 35.4795 126.913 36.3328V41.6608H125.553V36.5248C125.553 35.4582 125.212 34.9248 124.529 34.9248C124.23 34.9248 123.921 35.0422 123.601 35.2768C123.292 35.5115 123.02 35.8315 122.785 36.2368V41.6608H121.425V36.5248C121.425 35.4582 121.084 34.9248 120.401 34.9248C120.102 34.9248 119.793 35.0422 119.473 35.2768C119.164 35.5115 118.892 35.8315 118.657 36.2368V41.6608H117.297V33.8528H118.577V35.0208C118.854 34.5835 119.174 34.2475 119.537 34.0128C119.9 33.7782 120.278 33.6608 120.673 33.6608C121.164 33.6608 121.574 33.7888 121.905 34.0448C122.236 34.2902 122.476 34.6528 122.625 35.1328C122.913 34.6528 123.244 34.2902 123.617 34.0448C123.99 33.7888 124.385 33.6608 124.801 33.6608ZM135.415 33.6608C136.333 33.6608 136.999 33.8688 137.415 34.2848C137.842 34.6902 138.055 35.3408 138.055 36.2368V41.6608H136.759V40.4128C136.141 41.3728 135.442 41.8528 134.663 41.8528C134.045 41.8528 133.549 41.6395 133.175 41.2128C132.813 40.7862 132.631 40.2048 132.631 39.4688V39.0208C132.631 38.3808 132.85 37.8528 133.287 37.4368C133.725 37.0102 134.311 36.7968 135.047 36.7968C135.453 36.7968 136.002 36.8662 136.695 37.0048V36.1248C136.695 35.6662 136.589 35.3355 136.375 35.1328C136.173 34.9302 135.853 34.8288 135.415 34.8288C134.903 34.8288 134.183 34.9088 133.255 35.0688V33.9008C134.258 33.7408 134.978 33.6608 135.415 33.6608ZM135.383 37.8528C134.935 37.8528 134.594 37.9702 134.359 38.2048C134.125 38.4395 134.007 38.7702 134.007 39.1968V39.3728C134.007 39.7675 134.098 40.0768 134.279 40.3008C134.461 40.5248 134.69 40.6368 134.967 40.6368C135.255 40.6368 135.549 40.5142 135.847 40.2688C136.157 40.0128 136.439 39.6555 136.695 39.1968V37.9648C136.29 37.8902 135.853 37.8528 135.383 37.8528ZM142.079 30.7328V41.6608H140.719V30.7328H142.079ZM146.172 30.7328V41.6608H144.812V30.7328H146.172Z" fill="#628099"/>
<path d="M61.7538 9.65282C63.6418 9.65282 65.0418 10.0368 65.9538 10.8048C66.8819 11.5568 67.3459 12.6368 67.3459 14.0448V14.6208C67.3459 16.1248 66.8979 17.2848 66.0018 18.1008C65.1058 18.9168 63.7538 19.3248 61.9458 19.3248C61.2258 19.3248 60.4578 19.2608 59.6418 19.1328V25.6608H57.6018V9.77282C58.9618 9.69282 60.3458 9.65282 61.7538 9.65282ZM61.7058 11.3808C61.0018 11.3808 60.3138 11.3968 59.6418 11.4288V17.3808C60.6018 17.5088 61.3378 17.5728 61.8498 17.5728C64.1538 17.5728 65.3059 16.5568 65.3059 14.5248V14.1168C65.3059 13.2048 65.0178 12.5248 64.4418 12.0768C63.8658 11.6128 62.9538 11.3808 61.7058 11.3808ZM74.2237 13.6608C75.6477 13.6608 76.7037 14.0448 77.3917 14.8128C78.0957 15.5648 78.4477 16.6368 78.4477 18.0288V21.5808C78.4477 22.9728 78.0957 24.0528 77.3917 24.8208C76.7037 25.5728 75.6477 25.9488 74.2237 25.9488C72.7997 25.9488 71.7357 25.5728 71.0317 24.8208C70.3437 24.0528 69.9997 22.9728 69.9997 21.5808V18.0288C69.9997 16.6368 70.3437 15.5648 71.0317 14.8128C71.7357 14.0448 72.7997 13.6608 74.2237 13.6608ZM74.2237 15.3648C73.5357 15.3648 72.9997 15.5808 72.6157 16.0128C72.2317 16.4448 72.0397 17.0608 72.0397 17.8608V21.7488C72.0397 22.5488 72.2317 23.1648 72.6157 23.5968C72.9997 24.0288 73.5357 24.2448 74.2237 24.2448C74.9117 24.2448 75.4477 24.0288 75.8317 23.5968C76.2157 23.1648 76.4077 22.5488 76.4077 21.7488V17.8368C76.4077 17.0368 76.2157 16.4288 75.8317 16.0128C75.4477 15.5808 74.9117 15.3648 74.2237 15.3648ZM84.1 9.26882V19.0848L87.94 13.9488H90.22L86.236 19.0848L90.508 25.6608H88.06L84.1 19.3728V25.6608H82.06V9.26882H84.1ZM96.2906 13.6608C97.6346 13.6608 98.6586 14.0288 99.3626 14.7648C100.067 15.5008 100.419 16.5648 100.419 17.9568V20.4288H94.2506V21.8448C94.2506 22.6608 94.4426 23.2528 94.8266 23.6208C95.2266 23.9728 95.8506 24.1488 96.6986 24.1488C97.5306 24.1488 98.5706 24.0208 99.8186 23.7648L99.8666 25.5408C98.3786 25.8128 97.3146 25.9488 96.6746 25.9488C95.0906 25.9488 93.9466 25.6048 93.2426 24.9168C92.5546 24.2288 92.2106 23.1648 92.2106 21.7248V17.9568C92.2106 16.5648 92.5466 15.5008 93.2186 14.7648C93.9066 14.0288 94.9306 13.6608 96.2906 13.6608ZM96.2906 15.3648C95.6666 15.3648 95.1706 15.5648 94.8026 15.9648C94.4346 16.3488 94.2506 16.9088 94.2506 17.6448V18.7968H98.3786V17.7168C98.3786 16.9488 98.1866 16.3648 97.8026 15.9648C97.4346 15.5648 96.9306 15.3648 96.2906 15.3648ZM111.749 25.6608H109.805V23.7648C108.845 25.2208 107.749 25.9488 106.517 25.9488C105.525 25.9488 104.765 25.6128 104.237 24.9408C103.709 24.2528 103.445 23.2528 103.445 21.9408V17.6688C103.445 16.4048 103.733 15.4208 104.309 14.7168C104.901 14.0128 105.741 13.6608 106.829 13.6608C107.293 13.6608 107.781 13.7808 108.293 14.0208C108.805 14.2448 109.277 14.5248 109.709 14.8608V9.26882H111.749V25.6608ZM107.285 15.4848C106.709 15.4848 106.261 15.6928 105.941 16.1088C105.637 16.5088 105.485 17.1248 105.485 17.9568V21.6768C105.485 23.3088 105.989 24.1248 106.997 24.1248C107.477 24.1248 107.949 23.9408 108.413 23.5728C108.893 23.1888 109.325 22.6528 109.709 21.9648V16.6848C109.373 16.3328 108.973 16.0448 108.509 15.8208C108.061 15.5968 107.653 15.4848 107.285 15.4848ZM119.439 13.6608C120.783 13.6608 121.807 14.0288 122.511 14.7648C123.215 15.5008 123.567 16.5648 123.567 17.9568V20.4288H117.399V21.8448C117.399 22.6608 117.591 23.2528 117.975 23.6208C118.375 23.9728 118.999 24.1488 119.847 24.1488C120.679 24.1488 121.719 24.0208 122.967 23.7648L123.015 25.5408C121.527 25.8128 120.463 25.9488 119.823 25.9488C118.239 25.9488 117.095 25.6048 116.391 24.9168C115.703 24.2288 115.359 23.1648 115.359 21.7248V17.9568C115.359 16.5648 115.695 15.5008 116.367 14.7648C117.055 14.0288 118.079 13.6608 119.439 13.6608ZM119.439 15.3648C118.815 15.3648 118.319 15.5648 117.951 15.9648C117.583 16.3488 117.399 16.9088 117.399 17.6448V18.7968H121.527V17.7168C121.527 16.9488 121.335 16.3648 120.951 15.9648C120.583 15.5648 120.079 15.3648 119.439 15.3648ZM122.367 9.22082L120.087 12.5568H118.359L120.183 9.22082H122.367ZM134.873 13.9488L131.441 19.5648L135.137 25.6608H132.809L130.169 21.0768L127.601 25.6608H125.273L128.921 19.6368L125.513 13.9488H127.841L130.217 18.1488L132.617 13.9488H134.873Z" fill="#DF2323"/>
</g>
</svg>
