<svg version="1.2" xmlns="http://www.w3.org/2000/svg" viewBox="0 0 98 110" width="98" height="110">
	<title>Neues Projekt</title>
	<style>
		.s0 { fill: #ffffff } 
	</style>
	<path id="Farbfüllung 1" class="s0" d="m0 0.7c1.4 0.2 4.8 1.1 7.5 2 2.8 0.8 7.5 2.9 10.5 4.6 3 1.7 7.7 5.2 10.4 7.7 2.7 2.5 6.7 7.2 8.8 10.5 2.1 3.3 4.8 8.9 6.1 12.5 1.7 5.1 2.2 8.8 2.2 17 0 8.2-0.5 11.9-2.2 17-1.3 3.6-4 9.2-6.1 12.5-2.1 3.3-6.1 8-8.8 10.5-2.7 2.5-7.4 6-10.4 7.7-3 1.7-7.8 3.8-10.5 4.6-2.8 0.9-6.1 1.8-7.5 2-1.4 0.2 20.1 0.5 47.8 0.6l50.2 0.1v-110c-77.9 0.2-99.4 0.5-98 0.7z"/>
</svg>