<svg version="1.2" xmlns="http://www.w3.org/2000/svg" viewBox="0 0 21 21" width="21" height="21">
	<title>poke-ball</title>
	<style>
		.s0 { fill: #ffffff } 
	</style>
	<path id="Farbfüllung 1" fill-rule="evenodd" class="s0" d="m10.7 0c0.4 0 0.8 0 1 0.1 0.2 0 0.5 0 0.7 0 0.1 0.1 0.4 0.1 0.6 0.2 0.2 0 0.6 0.1 0.8 0.2 0.3 0.1 0.6 0.2 0.8 0.3 0.2 0.1 0.4 0.2 0.6 0.3 0.1 0 0.4 0.2 0.5 0.3 0.2 0 0.5 0.2 0.6 0.3 0.2 0.1 0.5 0.3 0.6 0.4 0.2 0.2 0.4 0.4 0.6 0.5 0.1 0.1 0.4 0.4 0.6 0.6 0.2 0.1 0.4 0.4 0.5 0.5 0.1 0.1 0.3 0.3 0.3 0.4 0.1 0.2 0.3 0.4 0.4 0.6 0.1 0.1 0.3 0.4 0.4 0.5 0 0.1 0.2 0.4 0.2 0.5 0.1 0.2 0.2 0.5 0.3 0.6 0.1 0.1 0.2 0.4 0.3 0.6 0 0.2 0.1 0.5 0.2 0.7 0 0.2 0.1 0.4 0.1 0.6 0.1 0.2 0.1 0.5 0.1 0.6q0.1 0.2 0.1 0.4h-4.1l-0.1-0.3c-0.1-0.2-0.1-0.4-0.1-0.5-0.1-0.1-0.1-0.2-0.2-0.4 0-0.1-0.2-0.3-0.3-0.5-0.1-0.2-0.2-0.5-0.3-0.6-0.1-0.1-0.2-0.3-0.4-0.5-0.1-0.1-0.3-0.4-0.5-0.6-0.1-0.1-0.4-0.3-0.5-0.4-0.1-0.1-0.3-0.2-0.5-0.3-0.1-0.1-0.3-0.3-0.5-0.3-0.2-0.1-0.4-0.2-0.5-0.3-0.1 0-0.3-0.1-0.5-0.1-0.1-0.1-0.3-0.2-0.5-0.2-0.1 0-0.3-0.1-0.5-0.1-0.1 0-0.4 0-0.6-0.1-0.2 0-0.4 0-0.6 0-0.2 0-0.5 0.1-0.6 0.1-0.1 0-0.4 0-0.5 0.1-0.1 0-0.3 0-0.5 0.1-0.2 0-0.4 0.1-0.6 0.2-0.1 0-0.4 0.1-0.5 0.2-0.2 0.1-0.5 0.3-0.7 0.4-0.2 0.1-0.5 0.4-0.6 0.5-0.2 0.1-0.4 0.3-0.5 0.5-0.2 0.1-0.4 0.4-0.5 0.5-0.1 0.1-0.3 0.4-0.3 0.5-0.1 0.1-0.3 0.4-0.3 0.6-0.1 0.1-0.2 0.4-0.3 0.5 0 0.1-0.1 0.4-0.1 0.5-0.1 0.2-0.1 0.4-0.2 0.5h-4.1v-0.2c0 0 0.1-0.2 0.1-0.4 0-0.2 0.1-0.5 0.2-0.8 0-0.2 0.1-0.6 0.2-0.7 0-0.1 0.1-0.4 0.2-0.6 0.1-0.1 0.2-0.4 0.3-0.6 0.1-0.3 0.3-0.6 0.4-0.7 0.1-0.2 0.2-0.4 0.3-0.6 0.1-0.1 0.2-0.3 0.4-0.5 0.1-0.1 0.3-0.3 0.4-0.5 0.1-0.1 0.3-0.3 0.4-0.4 0.1-0.2 0.4-0.4 0.5-0.5 0.2-0.2 0.5-0.4 0.7-0.5 0.1-0.2 0.4-0.3 0.5-0.5 0.2-0.1 0.5-0.2 0.6-0.3 0.2-0.1 0.4-0.2 0.5-0.3 0.1 0 0.3-0.1 0.5-0.2 0.1-0.1 0.3-0.2 0.5-0.2 0.2-0.1 0.4-0.1 0.5-0.2 0.1 0 0.3-0.1 0.5-0.1 0.2-0.1 0.5-0.2 0.7-0.2 0.1 0 0.4-0.1 0.5-0.1 0.2 0 0.4 0 0.5-0.1 0 0 0.2 0 0.4 0 0.2 0 0.6 0 0.9 0zm-0.3 7c0-0.1 0.3 0 0.5 0 0.2 0 0.4 0 0.5 0 0.2 0.1 0.4 0.2 0.5 0.2 0.1 0.1 0.3 0.1 0.4 0.2 0.1 0.1 0.3 0.2 0.4 0.2 0.1 0.1 0.2 0.3 0.3 0.4 0.2 0.1 0.3 0.2 0.4 0.3 0 0.1 0.1 0.3 0.2 0.4 0.1 0.1 0.2 0.3 0.2 0.4 0.1 0.1 0.1 0.3 0.2 0.4 0 0.3 0 0.3 0 0.9 0 0.7 0 0.7 0 0.9-0.1 0.1-0.2 0.3-0.2 0.5-0.1 0.1-0.2 0.3-0.2 0.4-0.1 0.1-0.2 0.2-0.3 0.3 0 0.1-0.2 0.3-0.3 0.4-0.1 0.1-0.2 0.2-0.3 0.3-0.1 0.1-0.3 0.2-0.4 0.2-0.1 0.1-0.3 0.2-0.4 0.2-0.1 0.1-0.4 0.2-0.5 0.2-0.3 0.1-0.3 0.1-0.8 0.1-0.6 0-0.6 0-0.9-0.1-0.1 0-0.4-0.1-0.5-0.2-0.1 0-0.3-0.1-0.4-0.2-0.1 0-0.3-0.1-0.4-0.2-0.1-0.1-0.2-0.2-0.3-0.3-0.1-0.1-0.3-0.3-0.4-0.4 0-0.1-0.1-0.3-0.2-0.4-0.1-0.1-0.1-0.2-0.2-0.4 0-0.1-0.1-0.3-0.2-0.4 0-0.1 0-0.3 0-0.5 0-0.1-0.1-0.3-0.1-0.5 0-0.1 0.1-0.3 0.1-0.4 0-0.1 0-0.2 0-0.3 0.1-0.1 0.1-0.3 0.2-0.4 0-0.1 0.1-0.4 0.2-0.5 0.1-0.1 0.2-0.3 0.2-0.4 0.1-0.1 0.2-0.2 0.4-0.3 0.1-0.1 0.3-0.3 0.4-0.4 0.1-0.1 0.3-0.2 0.5-0.3 0.2-0.1 0.4-0.2 0.5-0.2 0.1 0 0.3-0.1 0.4-0.1 0.1 0 0.2 0 0.2 0 0.1 0 0.2 0 0.3 0zm-10.3 5h1.9c1.1 0 2 0 2.2 0l0.1 0.4c0.1 0.2 0.2 0.5 0.3 0.6 0 0.1 0.1 0.4 0.2 0.5 0.1 0.1 0.2 0.4 0.3 0.5 0.1 0.1 0.3 0.3 0.3 0.4 0.1 0.1 0.3 0.3 0.5 0.5 0.1 0.2 0.4 0.4 0.5 0.5 0.1 0.1 0.4 0.3 0.5 0.4 0.2 0.1 0.4 0.2 0.6 0.3 0.1 0 0.4 0.2 0.5 0.2 0.2 0.1 0.4 0.2 0.6 0.2 0.2 0.1 0.5 0.2 0.7 0.2 0.2 0 0.4 0.1 0.8 0.1 0.3 0 0.5 0 0.8 0 0.3 0 0.6-0.1 0.7-0.1 0.2 0 0.4-0.1 0.5-0.1 0.2 0 0.4-0.1 0.5-0.1 0.1-0.1 0.3-0.1 0.4-0.2 0.1 0 0.3-0.1 0.5-0.2 0.1-0.1 0.4-0.3 0.6-0.4 0.2-0.1 0.4-0.2 0.5-0.3 0.1-0.1 0.3-0.3 0.5-0.5 0.2-0.2 0.4-0.4 0.6-0.6 0.1-0.2 0.3-0.5 0.4-0.6 0.1-0.2 0.2-0.4 0.3-0.6 0.1-0.2 0.2-0.5 0.4-1.1h2c1.2 0 2.1 0 2.1 0 0 0 0 0.1 0 0.4-0.1 0.2-0.1 0.5-0.2 0.7 0 0.1-0.1 0.4-0.2 0.7-0.1 0.2-0.2 0.5-0.2 0.6-0.1 0.2-0.2 0.5-0.4 0.7-0.1 0.2-0.3 0.6-0.4 0.7-0.1 0.2-0.3 0.5-0.4 0.7-0.1 0.2-0.3 0.4-0.5 0.6-0.1 0.2-0.4 0.5-0.6 0.7-0.2 0.2-0.5 0.4-0.6 0.5-0.1 0.1-0.3 0.3-0.5 0.4-0.1 0.1-0.2 0.2-0.3 0.3-0.1 0-0.3 0.1-0.4 0.2-0.2 0.1-0.4 0.3-0.6 0.3-0.1 0.1-0.4 0.3-0.6 0.3-0.1 0.1-0.3 0.2-0.5 0.3-0.2 0-0.5 0.1-0.7 0.2-0.2 0.1-0.5 0.2-0.6 0.2-0.2 0.1-0.4 0.1-0.6 0.1-0.1 0.1-0.3 0.1-0.5 0.1-0.1 0-0.3 0.1-0.5 0.1-0.1 0-0.4 0-0.7 0-0.3 0.1-0.7 0.1-0.9 0-0.2 0-0.5 0-0.7 0-0.2 0-0.4-0.1-0.6-0.1-0.1 0-0.4-0.1-0.6-0.1-0.1-0.1-0.4-0.1-0.6-0.2-0.1 0-0.4-0.1-0.5-0.1-0.2-0.1-0.4-0.2-0.6-0.3-0.2 0-0.5-0.2-0.7-0.3-0.2-0.1-0.5-0.3-0.6-0.3-0.1-0.1-0.4-0.2-0.5-0.3-0.2-0.1-0.4-0.3-0.6-0.4-0.2-0.2-0.4-0.4-0.6-0.6-0.2-0.2-0.5-0.5-0.7-0.6-0.1-0.2-0.3-0.4-0.4-0.6-0.1-0.1-0.3-0.3-0.4-0.5-0.1-0.1-0.3-0.4-0.5-0.6-0.1-0.2-0.3-0.6-0.4-0.8-0.1-0.2-0.3-0.6-0.3-0.8-0.1-0.1-0.2-0.4-0.3-0.6 0-0.2-0.1-0.4-0.1-0.6-0.1-0.2-0.1-0.5-0.2-0.6 0-0.2 0-0.3 0-0.4z"/>
</svg>